<svg xmlns="http://www.w3.org/2000/svg" width="1200" height="900" viewBox="0 0 1200 900" role="img" aria-label="LUXURY VILLA — PLACEHOLDER">
  <defs>
    <linearGradient id="sky" x1="0" y1="0" x2="0" y2="1">
      <stop offset="0" stop-color="#0d2947"/>
      <stop offset="0.55" stop-color="#0a2140"/>
      <stop offset="1" stop-color="#071b33"/>
    </linearGradient>
    <pattern id="grid" width="60" height="60" patternUnits="userSpaceOnUse">
      <path d="M60 0H0V60" fill="none" stroke="rgba(28,192,180,0.10)"/>
    </pattern>
  </defs>
  <rect width="1200" height="900" fill="url(#sky)"/>
  <rect width="1200" height="900" fill="url(#grid)"/>
  <rect x="0" y="558" width="1200" height="342" fill="rgb(20,46,78)"/><rect x="60" y="54" width="1080" height="504.00000000000006" fill="rgb(15,38,66)" stroke="rgba(28,192,180,0.4)" stroke-width="1.5"/><line x1="60" y1="54" x2="60" y2="558" stroke="rgba(28,192,180,0.28)"/><line x1="240" y1="54" x2="240" y2="558" stroke="rgba(28,192,180,0.28)"/><line x1="420" y1="54" x2="420" y2="558" stroke="rgba(28,192,180,0.28)"/><line x1="600" y1="54" x2="600" y2="558" stroke="rgba(28,192,180,0.28)"/><line x1="780" y1="54" x2="780" y2="558" stroke="rgba(28,192,180,0.28)"/><line x1="960" y1="54" x2="960" y2="558" stroke="rgba(28,192,180,0.28)"/><line x1="1140" y1="54" x2="1140" y2="558" stroke="rgba(28,192,180,0.28)"/><rect x="96" y="347.6223418207883" width="60" height="360" fill="rgba(28,192,180,0.10)"/><rect x="192" y="181.48037533008392" width="60" height="360" fill="rgba(28,192,180,0.10)"/><rect x="288" y="403.28168370222556" width="60" height="360" fill="rgba(28,192,180,0.10)"/><rect x="384" y="289.24159127953317" width="60" height="360" fill="rgba(28,192,180,0.10)"/><rect x="480" y="223.01801796664222" width="60" height="360" fill="rgba(28,192,180,0.10)"/><rect x="576" y="197.72243245648042" width="60" height="360" fill="rgba(28,192,180,0.10)"/><rect x="672" y="295.1174321577855" width="60" height="360" fill="rgba(28,192,180,0.10)"/><rect x="768" y="339.87548036282533" width="60" height="360" fill="rgba(28,192,180,0.10)"/><rect x="864" y="286.5532820759472" width="60" height="360" fill="rgba(28,192,180,0.10)"/><rect x="960" y="218.3937474673985" width="60" height="360" fill="rgba(28,192,180,0.10)"/><rect x="1056" y="321.8542706121116" width="60" height="360" fill="rgba(28,192,180,0.10)"/><rect x="168.00000000000003" y="594" width="432" height="144" fill="rgb(28,54,86)" stroke="rgba(28,192,180,0.3)"/><rect x="672.0000000000001" y="612" width="288" height="108" fill="rgb(26,50,82)" stroke="rgba(28,192,180,0.25)"/><circle cx="1008" cy="495.00000000000006" r="45" fill="none" stroke="rgba(185,154,91,0.5)"/>
  <rect x="14" y="14" width="1172" height="872" fill="none" stroke="rgba(28,192,180,0.45)"/>
  <text x="26" y="878" font-family="monospace" font-size="13" letter-spacing="2" fill="rgba(245,242,233,0.6)">LUXURY VILLA — PLACEHOLDER</text>
</svg>