<svg xmlns="http://www.w3.org/2000/svg" width="1200" height="900" viewBox="0 0 1200 900" role="img" aria-label="INDUSTRIAL FACILITY — PLACEHOLDER">
  <defs>
    <linearGradient id="sky" x1="0" y1="0" x2="0" y2="1">
      <stop offset="0" stop-color="#0d2947"/>
      <stop offset="0.55" stop-color="#0a2140"/>
      <stop offset="1" stop-color="#071b33"/>
    </linearGradient>
    <pattern id="grid" width="60" height="60" patternUnits="userSpaceOnUse">
      <path d="M60 0H0V60" fill="none" stroke="rgba(28,192,180,0.10)"/>
    </pattern>
  </defs>
  <rect width="1200" height="900" fill="url(#sky)"/>
  <rect width="1200" height="900" fill="url(#grid)"/>
  <rect x="336.00000000000006" y="54" width="528" height="810" fill="rgb(24,52,84)"/><rect x="336.00000000000006" y="54" width="528" height="810" fill="none" stroke="rgba(28,192,180,0.4)" stroke-width="1.5"/><line x1="336.00000000000006" y1="90" x2="864" y2="90" stroke="rgba(28,192,180,0.22)"/><line x1="336.00000000000006" y1="130.5" x2="864" y2="130.5" stroke="rgba(28,192,180,0.22)"/><line x1="336.00000000000006" y1="171" x2="864" y2="171" stroke="rgba(28,192,180,0.22)"/><line x1="336.00000000000006" y1="211.5" x2="864" y2="211.5" stroke="rgba(28,192,180,0.22)"/><line x1="336.00000000000006" y1="252" x2="864" y2="252" stroke="rgba(28,192,180,0.22)"/><line x1="336.00000000000006" y1="292.5" x2="864" y2="292.5" stroke="rgba(28,192,180,0.22)"/><line x1="336.00000000000006" y1="333" x2="864" y2="333" stroke="rgba(28,192,180,0.22)"/><line x1="336.00000000000006" y1="373.5" x2="864" y2="373.5" stroke="rgba(28,192,180,0.22)"/><line x1="336.00000000000006" y1="414" x2="864" y2="414" stroke="rgba(28,192,180,0.22)"/><line x1="336.00000000000006" y1="454.5" x2="864" y2="454.5" stroke="rgba(28,192,180,0.22)"/><line x1="336.00000000000006" y1="495" x2="864" y2="495" stroke="rgba(28,192,180,0.22)"/><line x1="336.00000000000006" y1="535.5" x2="864" y2="535.5" stroke="rgba(28,192,180,0.22)"/><line x1="336.00000000000006" y1="576" x2="864" y2="576" stroke="rgba(28,192,180,0.22)"/><line x1="336.00000000000006" y1="616.5" x2="864" y2="616.5" stroke="rgba(28,192,180,0.22)"/><line x1="336.00000000000006" y1="657" x2="864" y2="657" stroke="rgba(28,192,180,0.22)"/><line x1="336.00000000000006" y1="697.5" x2="864" y2="697.5" stroke="rgba(28,192,180,0.22)"/><line x1="336.00000000000006" y1="738" x2="864" y2="738" stroke="rgba(28,192,180,0.22)"/><line x1="336.00000000000006" y1="778.5" x2="864" y2="778.5" stroke="rgba(28,192,180,0.22)"/><line x1="336.00000000000006" y1="819" x2="864" y2="819" stroke="rgba(28,192,180,0.22)"/><line x1="409.9200000000001" y1="54" x2="409.9200000000001" y2="864" stroke="rgba(28,192,180,0.16)"/><line x1="494.4000000000001" y1="54" x2="494.4000000000001" y2="864" stroke="rgba(28,192,180,0.16)"/><line x1="578.8800000000001" y1="54" x2="578.8800000000001" y2="864" stroke="rgba(28,192,180,0.16)"/><line x1="663.3600000000001" y1="54" x2="663.3600000000001" y2="864" stroke="rgba(28,192,180,0.16)"/><line x1="747.8400000000001" y1="54" x2="747.8400000000001" y2="864" stroke="rgba(28,192,180,0.16)"/><line x1="832.3200000000002" y1="54" x2="832.3200000000002" y2="864" stroke="rgba(28,192,180,0.16)"/><rect x="367.68000000000006" y="108" width="47.519999999999996" height="18" fill="rgba(245,242,233,0.061380659136921166)"/><rect x="452.1600000000001" y="108" width="47.519999999999996" height="18" fill="rgba(245,242,233,0.10410408232404733)"/><rect x="536.6400000000001" y="108" width="47.519999999999996" height="18" fill="rgba(245,242,233,0.08535807721433229)"/><rect x="621.1200000000001" y="108" width="47.519999999999996" height="18" fill="rgba(245,242,233,0.12467424677917734)"/><rect x="705.6000000000001" y="108" width="47.519999999999996" height="18" fill="rgba(245,242,233,0.11519277367624453)"/><rect x="790.0800000000002" y="108" width="47.519999999999996" height="18" fill="rgba(245,242,233,0.18215537783922628)"/><rect x="367.68000000000006" y="148.5" width="47.519999999999996" height="18" fill="rgba(245,242,233,0.14303793761937414)"/><rect x="452.1600000000001" y="148.5" width="47.519999999999996" height="18" fill="rgba(245,242,233,0.21973235981888137)"/><rect x="536.6400000000001" y="148.5" width="47.519999999999996" height="18" fill="rgba(245,242,233,0.18863294726645108)"/><rect x="621.1200000000001" y="148.5" width="47.519999999999996" height="18" fill="rgba(245,242,233,0.11865503265406005)"/><rect x="705.6000000000001" y="148.5" width="47.519999999999996" height="18" fill="rgba(245,242,233,0.1621560505517118)"/><rect x="790.0800000000002" y="148.5" width="47.519999999999996" height="18" fill="rgba(245,242,233,0.18551793742808514)"/><rect x="367.68000000000006" y="189" width="47.519999999999996" height="18" fill="rgba(245,242,233,0.19132087960701027)"/><rect x="452.1600000000001" y="189" width="47.519999999999996" height="18" fill="rgba(245,242,233,0.10836947423405946)"/><rect x="536.6400000000001" y="189" width="47.519999999999996" height="18" fill="rgba(245,242,233,0.12348608117026742)"/><rect x="621.1200000000001" y="189" width="47.519999999999996" height="18" fill="rgba(245,242,233,0.0769373929023277)"/><rect x="705.6000000000001" y="189" width="47.519999999999996" height="18" fill="rgba(245,242,233,0.14650839639885815)"/><rect x="790.0800000000002" y="189" width="47.519999999999996" height="18" fill="rgba(245,242,233,0.10036870077834464)"/><rect x="367.68000000000006" y="229.5" width="47.519999999999996" height="18" fill="rgba(245,242,233,0.15088434076867996)"/><rect x="452.1600000000001" y="229.5" width="47.519999999999996" height="18" fill="rgba(245,242,233,0.14305874464393126)"/><rect x="536.6400000000001" y="229.5" width="47.519999999999996" height="18" fill="rgba(245,242,233,0.09566184161812999)"/><rect x="621.1200000000001" y="229.5" width="47.519999999999996" height="18" fill="rgba(245,242,233,0.2020023050744203)"/><rect x="705.6000000000001" y="229.5" width="47.519999999999996" height="18" fill="rgba(245,242,233,0.17460814068326727)"/><rect x="790.0800000000002" y="229.5" width="47.519999999999996" height="18" fill="rgba(245,242,233,0.09439127587583243)"/><rect x="367.68000000000006" y="270" width="47.519999999999996" height="18" fill="rgba(245,242,233,0.07150291130295955)"/><rect x="452.1600000000001" y="270" width="47.519999999999996" height="18" fill="rgba(245,242,233,0.13985749682644383)"/><rect x="536.6400000000001" y="270" width="47.519999999999996" height="18" fill="rgba(245,242,233,0.14380941762239674)"/><rect x="621.1200000000001" y="270" width="47.519999999999996" height="18" fill="rgba(245,242,233,0.09922885224281344)"/><rect x="705.6000000000001" y="270" width="47.519999999999996" height="18" fill="rgba(245,242,233,0.18601614451617934)"/><rect x="790.0800000000002" y="270" width="47.519999999999996" height="18" fill="rgba(245,242,233,0.09336663785332348)"/><rect x="367.68000000000006" y="310.5" width="47.519999999999996" height="18" fill="rgba(245,242,233,0.0895238105126191)"/><rect x="452.1600000000001" y="310.5" width="47.519999999999996" height="18" fill="rgba(245,242,233,0.1745716240874026)"/><rect x="536.6400000000001" y="310.5" width="47.519999999999996" height="18" fill="rgba(245,242,233,0.1817888427316211)"/><rect x="621.1200000000001" y="310.5" width="47.519999999999996" height="18" fill="rgba(245,242,233,0.2042034442932345)"/><rect x="705.6000000000001" y="310.5" width="47.519999999999996" height="18" fill="rgba(245,242,233,0.16010131985982298)"/><rect x="790.0800000000002" y="310.5" width="47.519999999999996" height="18" fill="rgba(245,242,233,0.1654094182269182)"/><rect x="367.68000000000006" y="351" width="47.519999999999996" height="18" fill="rgba(245,242,233,0.11747350292076589)"/><rect x="452.1600000000001" y="351" width="47.519999999999996" height="18" fill="rgba(245,242,233,0.10840582048869692)"/><rect x="536.6400000000001" y="351" width="47.519999999999996" height="18" fill="rgba(245,242,233,0.17053748099599034)"/><rect x="621.1200000000001" y="351" width="47.519999999999996" height="18" fill="rgba(245,242,233,0.1190555779193528)"/><rect x="705.6000000000001" y="351" width="47.519999999999996" height="18" fill="rgba(245,242,233,0.2038349283358548)"/><rect x="790.0800000000002" y="351" width="47.519999999999996" height="18" fill="rgba(245,242,233,0.08395660300855524)"/><rect x="367.68000000000006" y="391.5" width="47.519999999999996" height="18" fill="rgba(245,242,233,0.12552567572798579)"/><rect x="452.1600000000001" y="391.5" width="47.519999999999996" height="18" fill="rgba(245,242,233,0.17250879971426913)"/><rect x="536.6400000000001" y="391.5" width="47.519999999999996" height="18" fill="rgba(245,242,233,0.1303281372517813)"/><rect x="621.1200000000001" y="391.5" width="47.519999999999996" height="18" fill="rgba(245,242,233,0.09503603794481023)"/><rect x="705.6000000000001" y="391.5" width="47.519999999999996" height="18" fill="rgba(245,242,233,0.10179441603133454)"/><rect x="790.0800000000002" y="391.5" width="47.519999999999996" height="18" fill="rgba(245,242,233,0.1268753644337994)"/><rect x="367.68000000000006" y="432" width="47.519999999999996" height="18" fill="rgba(245,242,233,0.2103567554894835)"/><rect x="452.1600000000001" y="432" width="47.519999999999996" height="18" fill="rgba(245,242,233,0.09739400093472796)"/><rect x="536.6400000000001" y="432" width="47.519999999999996" height="18" fill="rgba(245,242,233,0.15941569315153176)"/><rect x="621.1200000000001" y="432" width="47.519999999999996" height="18" fill="rgba(245,242,233,0.18782761432405096)"/><rect x="705.6000000000001" y="432" width="47.519999999999996" height="18" fill="rgba(245,242,233,0.1495692026457982)"/><rect x="790.0800000000002" y="432" width="47.519999999999996" height="18" fill="rgba(245,242,233,0.14460206616669893)"/><rect x="367.68000000000006" y="472.5" width="47.519999999999996" height="18" fill="rgba(245,242,233,0.0982137180765858)"/><rect x="452.1600000000001" y="472.5" width="47.519999999999996" height="18" fill="rgba(245,242,233,0.12135637261788361)"/><rect x="536.6400000000001" y="472.5" width="47.519999999999996" height="18" fill="rgba(245,242,233,0.074801344628504)"/><rect x="621.1200000000001" y="472.5" width="47.519999999999996" height="18" fill="rgba(245,242,233,0.07714812035206706)"/><rect x="705.6000000000001" y="472.5" width="47.519999999999996" height="18" fill="rgba(245,242,233,0.11775143031692095)"/><rect x="790.0800000000002" y="472.5" width="47.519999999999996" height="18" fill="rgba(245,242,233,0.19164595582988114)"/><rect x="367.68000000000006" y="513" width="47.519999999999996" height="18" fill="rgba(245,242,233,0.14440852360334247)"/><rect x="452.1600000000001" y="513" width="47.519999999999996" height="18" fill="rgba(245,242,233,0.1736919664044399)"/><rect x="536.6400000000001" y="513" width="47.519999999999996" height="18" fill="rgba(245,242,233,0.067596012961003)"/><rect x="621.1200000000001" y="513" width="47.519999999999996" height="18" fill="rgba(245,242,233,0.15129758050781675)"/><rect x="705.6000000000001" y="513" width="47.519999999999996" height="18" fill="rgba(245,242,233,0.19086979902232998)"/><rect x="790.0800000000002" y="513" width="47.519999999999996" height="18" fill="rgba(245,242,233,0.09659202465845737)"/><rect x="367.68000000000006" y="553.5" width="47.519999999999996" height="18" fill="rgba(245,242,233,0.16595197308808565)"/><rect x="452.1600000000001" y="553.5" width="47.519999999999996" height="18" fill="rgba(245,242,233,0.20519326255045597)"/><rect x="536.6400000000001" y="553.5" width="47.519999999999996" height="18" fill="rgba(245,242,233,0.13244286373839714)"/><rect x="621.1200000000001" y="553.5" width="47.519999999999996" height="18" fill="rgba(245,242,233,0.18248593923577572)"/><rect x="705.6000000000001" y="553.5" width="47.519999999999996" height="18" fill="rgba(245,242,233,0.1080791360954754)"/><rect x="790.0800000000002" y="553.5" width="47.519999999999996" height="18" fill="rgba(245,242,233,0.10300227796004037)"/><rect x="367.68000000000006" y="594" width="47.519999999999996" height="18" fill="rgba(245,242,233,0.13756123286904767)"/><rect x="452.1600000000001" y="594" width="47.519999999999996" height="18" fill="rgba(245,242,233,0.1472869801032357)"/><rect x="536.6400000000001" y="594" width="47.519999999999996" height="18" fill="rgba(245,242,233,0.14756198064889758)"/><rect x="621.1200000000001" y="594" width="47.519999999999996" height="18" fill="rgba(245,242,233,0.12009889002889396)"/><rect x="705.6000000000001" y="594" width="47.519999999999996" height="18" fill="rgba(245,242,233,0.07779075679078232)"/><rect x="790.0800000000002" y="594" width="47.519999999999996" height="18" fill="rgba(245,242,233,0.2171839168923907)"/><rect x="367.68000000000006" y="634.5" width="47.519999999999996" height="18" fill="rgba(245,242,233,0.08527444103150628)"/><rect x="452.1600000000001" y="634.5" width="47.519999999999996" height="18" fill="rgba(245,242,233,0.1487947936588898)"/><rect x="536.6400000000001" y="634.5" width="47.519999999999996" height="18" fill="rgba(245,242,233,0.15789495373552198)"/><rect x="621.1200000000001" y="634.5" width="47.519999999999996" height="18" fill="rgba(245,242,233,0.1768129576498177)"/><rect x="705.6000000000001" y="634.5" width="47.519999999999996" height="18" fill="rgba(245,242,233,0.20920241569168865)"/><rect x="790.0800000000002" y="634.5" width="47.519999999999996" height="18" fill="rgba(245,242,233,0.1546336258004885)"/><rect x="367.68000000000006" y="675" width="47.519999999999996" height="18" fill="rgba(245,242,233,0.17577740918844936)"/><rect x="452.1600000000001" y="675" width="47.519999999999996" height="18" fill="rgba(245,242,233,0.0990749556873925)"/><rect x="536.6400000000001" y="675" width="47.519999999999996" height="18" fill="rgba(245,242,233,0.1353190284332959)"/><rect x="621.1200000000001" y="675" width="47.519999999999996" height="18" fill="rgba(245,242,233,0.08111477552272844)"/><rect x="705.6000000000001" y="675" width="47.519999999999996" height="18" fill="rgba(245,242,233,0.17293757310137153)"/><rect x="790.0800000000002" y="675" width="47.519999999999996" height="18" fill="rgba(245,242,233,0.12934059434744993)"/><rect x="367.68000000000006" y="715.5" width="47.519999999999996" height="18" fill="rgba(245,242,233,0.1591328046552371)"/><rect x="452.1600000000001" y="715.5" width="47.519999999999996" height="18" fill="rgba(245,242,233,0.0632431199264829)"/><rect x="536.6400000000001" y="715.5" width="47.519999999999996" height="18" fill="rgba(245,242,233,0.13987362306797876)"/><rect x="621.1200000000001" y="715.5" width="47.519999999999996" height="18" fill="rgba(245,242,233,0.13961569755016173)"/><rect x="705.6000000000001" y="715.5" width="47.519999999999996" height="18" fill="rgba(245,242,233,0.15157333455281333)"/><rect x="790.0800000000002" y="715.5" width="47.519999999999996" height="18" fill="rgba(245,242,233,0.1074864638640429)"/><rect x="367.68000000000006" y="756" width="47.519999999999996" height="18" fill="rgba(245,242,233,0.21448170653311535)"/><rect x="452.1600000000001" y="756" width="47.519999999999996" height="18" fill="rgba(245,242,233,0.11450420351175125)"/><rect x="536.6400000000001" y="756" width="47.519999999999996" height="18" fill="rgba(245,242,233,0.14933306240709499)"/><rect x="621.1200000000001" y="756" width="47.519999999999996" height="18" fill="rgba(245,242,233,0.1727873143897159)"/><rect x="705.6000000000001" y="756" width="47.519999999999996" height="18" fill="rgba(245,242,233,0.16741372882504946)"/><rect x="790.0800000000002" y="756" width="47.519999999999996" height="18" fill="rgba(245,242,233,0.1759338836465031)"/><rect x="367.68000000000006" y="796.5" width="47.519999999999996" height="18" fill="rgba(245,242,233,0.17027346762944945)"/><rect x="452.1600000000001" y="796.5" width="47.519999999999996" height="18" fill="rgba(245,242,233,0.06364160627941601)"/><rect x="536.6400000000001" y="796.5" width="47.519999999999996" height="18" fill="rgba(245,242,233,0.18866380277002462)"/><rect x="621.1200000000001" y="796.5" width="47.519999999999996" height="18" fill="rgba(245,242,233,0.20936161293648184)"/><rect x="705.6000000000001" y="796.5" width="47.519999999999996" height="18" fill="rgba(245,242,233,0.06145462498825509)"/><rect x="790.0800000000002" y="796.5" width="47.519999999999996" height="18" fill="rgba(245,242,233,0.17259115554159507)"/><rect x="48" y="810" width="1104" height="90" fill="rgb(16,42,73)"/>
  <rect x="14" y="14" width="1172" height="872" fill="none" stroke="rgba(28,192,180,0.45)"/>
  <text x="26" y="878" font-family="monospace" font-size="13" letter-spacing="2" fill="rgba(245,242,233,0.6)">INDUSTRIAL FACILITY — PLACEHOLDER</text>
</svg>